{
	"asset":{
		"version":"2.0",
		"generator":"Created using the official Cinema 4D glTF Exporter 1.000x284978"
	},
	"scenes":[{
		"nodes":[0]
	}],
	"nodes":[{
		"name":"furiosa",
		"mesh":0
	}],
	"materials":[{
		"pbrMetallicRoughness":{
			"baseColorFactor":[1.0,
			1.0,
			1.0,
			0.0],
			"metallicFactor":1.0,
			"roughnessFactor":1.0
		},
		"name":"Glass Frosted",
		"emissiveFactor":[0.0,
		0.0,
		0.0],
		"alphaMode":"BLEND",
		"doubleSided":false
	}],
	"meshes":[{
		"name":"furiosa",
		"primitives":[{
			"attributes":{
				"POSITION":1
			},
			"indices":0,
			"material":0
		}]
	}],
	"accessors":[{
		"bufferView":0,
		"type":"SCALAR",
		"componentType":5123,
		"max":[5771],
		"count":34308,
		"byteOffset":0,
		"min":[0]
	},
	{
		"bufferView":1,
		"type":"VEC3",
		"componentType":5126,
		"max":[8.207233428955079,
		27.062410354614259,
		9.232095718383789],
		"count":5772,
		"byteOffset":0,
		"min":[-8.195107460021973,
		0.15531300008296967,
		-11.209968566894532]
	}],
	"bufferViews":[{
		"buffer":0,
		"byteOffset":0,
		"byteLength":68616,
		"target":34963
	},
	{
		"buffer":0,
		"byteOffset":68616,
		"byteLength":69264,
		"target":34962
	}],
	"buffers":[{
		"uri":"data:application/octet-stream;base64,",
		"byteLength":137880
	}]
}