{
  "accessors": [
    {
      "bufferView": 2,
      "componentType": 5126,
      "count": 5974,
      "max": [
        8.207233428955078,
        9.232095718383789,
        27.062410354614258
      ],
      "min": [
        -8.195107460021973,
        -11.209968566894531,
        0.15531300008296967
      ],
      "type": "VEC3"
    },
    {
      "bufferView": 2,
      "byteOffset": 71688,
      "componentType": 5126,
      "count": 5974,
      "max": [
        0.999426007270813,
        0.9999252557754517,
        0.9999904632568359
      ],
      "min": [
        -0.9997625946998596,
        -0.9998912811279297,
        -0.9998020529747009
      ],
      "type": "VEC3"
    },
    {
      "bufferView": 1,
      "componentType": 5126,
      "count": 5974,
      "max": [
        0.8978009819984436,
        0.9998469948768616
      ],
      "min": [
        0.00015300000086426735,
        0.00015300000086426735
      ],
      "type": "VEC2"
    },
    {
      "bufferView": 0,
      "componentType": 5125,
      "count": 34308,
      "type": "SCALAR"
    }
  ],
  "asset": {
    "extras": {
      "author": "mono (https://sketchfab.com/michela.000)",
      "license": "CC-BY-4.0 (http://creativecommons.org/licenses/by/4.0/)",
      "source": "https://sketchfab.com/3d-models/charlize-theron-head-ca8926f4284045c6a2e75a6f7642c851",
      "title": "CHARLIZE THERON_HEAD"
    },
    "generator": "Sketchfab-12.68.0",
    "version": "2.0"
  },
  "bufferViews": [
    {
      "buffer": 0,
      "byteLength": 137232,
      "name": "floatBufferViews",
      "target": 34963
    },
    {
      "buffer": 0,
      "byteLength": 47792,
      "byteOffset": 137232,
      "byteStride": 8,
      "name": "floatBufferViews",
      "target": 34962
    },
    {
      "buffer": 0,
      "byteLength": 143376,
      "byteOffset": 185024,
      "byteStride": 12,
      "name": "floatBufferViews",
      "target": 34962
    }
  ],
  "buffers": [
    {
      "byteLength": 328400,
      "uri": "scene.bin"
    }
  ],
  "materials": [
    {
      "doubleSided": true,
      "name": "Default_OBJ",
      "pbrMetallicRoughness": {
        "metallicFactor": 0.0,
        "roughnessFactor": 0.6
      }
    }
  ],
  "meshes": [
    {
      "name": "Object_0",
      "primitives": [
        {
          "attributes": {
            "NORMAL": 1,
            "POSITION": 0,
            "TEXCOORD_0": 2
          },
          "indices": 3,
          "material": 0,
          "mode": 4
        }
      ]
    }
  ],
  "nodes": [
    {
      "children": [
        1
      ],
      "matrix": [
        1.0,
        0.0,
        0.0,
        0.0,
        0.0,
        2.220446049250313e-16,
        -1.0,
        0.0,
        0.0,
        1.0,
        2.220446049250313e-16,
        0.0,
        0.0,
        0.0,
        0.0,
        1.0
      ],
      "name": "Sketchfab_model"
    },
    {
      "children": [
        2
      ],
      "name": "charlize theron.obj.cleaner.materialmerger.gles"
    },
    {
      "mesh": 0,
      "name": "Object_2"
    }
  ],
  "scene": 0,
  "scenes": [
    {
      "name": "Sketchfab_Scene",
      "nodes": [
        0
      ]
    }
  ]
}
