{
	"nodes":[{
		"name":"Extrude.1",
		"mesh":0
	}],
	"asset":{
		"version":"2.0",
		"generator":"Created using the official Cinema 4D glTF Exporter 1.000x284978"
	},
	"scenes":[{
		"nodes":[0]
	}],
	"meshes":[{
		"name":"Extrude.1",
		"primitives":[{
			"attributes":{
				"POSITION":1,
				"NORMAL":2
			},
			"indices":0,
			"material":0
		}]
	}],
	"accessors":[{
		"bufferView":0,
		"componentType":5123,
		"type":"SCALAR",
		"count":87390,
		"byteOffset":0,
		"min":[0],
		"max":[14568]
	},
	{
		"bufferView":1,
		"componentType":5126,
		"type":"VEC3",
		"count":14569,
		"byteOffset":0,
		"min":[-52.233768463134769,
		-44.32603073120117,
		-19.307987213134767],
		"max":[52.23016357421875,
		43.2460823059082,
		15.263716697692871]
	},
	{
		"bufferView":1,
		"componentType":5126,
		"type":"VEC3",
		"count":14569,
		"byteOffset":12,
		"min":[-0.9999260306358337,
		-0.9997181296348572,
		-0.9998275637626648],
		"max":[0.9998454451560974,
		0.9995670914649963,
		0.9998275637626648]
	}],
	"bufferViews":[{
		"buffer":0,
		"byteOffset":0,
		"target":34963,
		"byteLength":174780
	},
	{
		"buffer":0,
		"byteOffset":174780,
		"target":34962,
		"byteLength":349656,
		"byteStride":24
	}],
	"buffers":[{
		"uri":"data:application/octet-stream;base64,",
		"byteLength":524436
	}],
	"materials":[{
		"pbrMetallicRoughness":{
			"baseColorFactor":[0.91,
			0.91,
			0.91,
			1.0],
			"metallicFactor":0.9400000000000001,
			"roughnessFactor":0.3
		},
		"emissiveFactor":[0.0,
		0.0,
		0.0],
		"alphaMode":"OPAQUE",
		"doubleSided":true,
		"name":"Leather 04"
	}]
}