{
	"nodes":[{
		"scale":[1.0,
		1.0,
		1.0],
		"name":"Extrude.4",
		"translation":[0.0,
		0.0,
		-0.00020515298820100725],
		"rotation":[0.0,
		0.0,
		0.0,
		-1.0],
		"mesh":0
	}],
	"asset":{
		"version":"2.0",
		"generator":"Created using the official Cinema 4D glTF Exporter 1.000x284978"
	},
	"scenes":[{
		"nodes":[0]
	}],
	"meshes":[{
		"name":"Extrude.4",
		"primitives":[{
			"attributes":{
				"POSITION":1
			},
			"indices":0,
			"material":0
		}]
	}],
	"accessors":[{
		"bufferView":0,
		"componentType":5123,
		"type":"SCALAR",
		"count":160560,
		"byteOffset":0,
		"min":[0],
		"max":[26761]
	},
	{
		"bufferView":1,
		"componentType":5126,
		"type":"VEC3",
		"count":26762,
		"byteOffset":0,
		"min":[-135.2413787841797,
		-129.41079711914063,
		-74.58505249023438],
		"max":[135.068359375,
		130.84718322753907,
		74.51575469970703]
	}],
	"bufferViews":[{
		"buffer":0,
		"byteOffset":0,
		"byteLength":321120,
		"target":34963
	},
	{
		"buffer":0,
		"byteOffset":321120,
		"byteLength":321144,
		"target":34962
	}],
	"buffers":[{
		"uri":"data:application/octet-stream;base64,",
		"byteLength":642264
	}],
	"materials":[{
		"pbrMetallicRoughness":{
			"baseColorFactor":[0.949999988079071,
			0.949999988079071,
			0.949999988079071,
			1.0],
			"metallicFactor":0.949999988079071,
			"roughnessFactor":0.0
		},
		"emissiveFactor":[0.0,
		0.0,
		0.0],
		"alphaMode":"OPAQUE",
		"doubleSided":false,
		"name":"Plastic Matte"
	}]
}