{
	"asset":{
		"version":"2.0",
		"generator":"Created using the official Cinema 4D glTF Exporter 1.000x284978"
	},
	"scenes":[{
		"nodes":[0]
	}],
	"nodes":[{
		"name":"Extrude.1",
		"translation":[-0.00022865984647069126,
		0.0,
		0.0],
		"rotation":[1.0,
		-6.123234262925839e-17,
		6.123234262925839e-17,
		-6.123234262925839e-17],
		"scale":[1.0,
		-1.0,
		1.0],
		"mesh":0
	}],
	"materials":[{
		"pbrMetallicRoughness":{
			"baseColorFactor":[0.91,
			0.91,
			0.91,
			1.0],
			"metallicFactor":0.9400000000000001,
			"roughnessFactor":0.3
		},
		"emissiveFactor":[0.0,
		0.0,
		0.0],
		"alphaMode":"OPAQUE",
		"doubleSided":false,
		"name":"Leather 04"
	}],
	"meshes":[{
		"primitives":[{
			"attributes":{
				"POSITION":1,
				"NORMAL":2
			},
			"indices":0,
			"material":0
		}],
		"name":"Extrude.1"
	}],
	"accessors":[{
		"bufferView":0,
		"type":"SCALAR",
		"componentType":5123,
		"count":127974,
		"byteOffset":0,
		"min":[0],
		"max":[20659]
	},
	{
		"bufferView":1,
		"type":"VEC3",
		"componentType":5126,
		"count":20660,
		"byteOffset":0,
		"min":[-26.630800247192384,
		-22.393680572509767,
		-9.08072280883789],
		"max":[26.630800247192384,
		22.393970489501954,
		8.204971313476563]
	},
	{
		"bufferView":1,
		"type":"VEC3",
		"componentType":5126,
		"count":20660,
		"byteOffset":12,
		"min":[-0.9940018653869629,
		-0.9988720417022705,
		-0.9999996423721314],
		"max":[0.9945196509361267,
		0.9542854428291321,
		0.9999779462814331]
	}],
	"bufferViews":[{
		"buffer":0,
		"byteOffset":0,
		"byteLength":255948,
		"target":34963
	},
	{
		"buffer":0,
		"byteOffset":255948,
		"byteLength":495840,
		"target":34962,
		"byteStride":24
	}],
	"buffers":[{
		"uri":"data:application/octet-stream;base64,",
		"byteLength":751788
	}]
}