{
	"nodes":[{
		"scale":[1.0,
		1.0,
		1.0],
		"name":"Extrude.4",
		"translation":[0.0,
		0.0,
		0.00020515298820100725],
		"rotation":[0.0,
		0.0,
		0.0,
		-1.0],
		"mesh":0
	}],
	"asset":{
		"version":"2.0",
		"generator":"Created using the official Cinema 4D glTF Exporter 1.000x284978"
	},
	"scenes":[{
		"nodes":[0]
	}],
	"meshes":[{
		"name":"Extrude.4",
		"primitives":[{
			"attributes":{
				"POSITION":1,
				"NORMAL":2
			},
			"indices":0,
			"material":0
		}]
	}],
	"accessors":[{
		"bufferView":0,
		"componentType":5123,
		"type":"SCALAR",
		"count":160560,
		"byteOffset":0,
		"min":[0],
		"max":[26761]
	},
	{
		"bufferView":1,
		"componentType":5126,
		"type":"VEC3",
		"count":26762,
		"byteOffset":0,
		"min":[-135.2413787841797,
		-129.41079711914063,
		-74.51575469970703],
		"max":[135.068359375,
		130.84718322753907,
		74.58505249023438]
	},
	{
		"bufferView":1,
		"componentType":5126,
		"type":"VEC3",
		"count":26762,
		"byteOffset":12,
		"min":[-0.9999663829803467,
		-0.9999631643295288,
		-0.9995317459106445],
		"max":[0.9999596476554871,
		0.9997730255126953,
		0.9977914094924927]
	}],
	"bufferViews":[{
		"buffer":0,
		"byteOffset":0,
		"byteLength":321120,
		"target":34963
	},
	{
		"buffer":0,
		"byteOffset":321120,
		"byteLength":642288,
		"target":34962,
		"byteStride":24
	}],
	"buffers":[{
		"uri":"data:application/octet-stream;base64,",
		"byteLength":963408
	}],
	"materials":[{
		"pbrMetallicRoughness":{
			"baseColorFactor":[1.0,
			1.0,
			1.0,
			1.0],
			"metallicFactor":0.77,
			"roughnessFactor":0.9500000000000001
		},
		"emissiveFactor":[0.0,
		0.0,
		0.0],
		"alphaMode":"OPAQUE",
		"doubleSided":false,
		"name":"Plastic Green - Fake SSS - Med Roughness"
	}]
}
