{
	"asset":{
		"version":"2.0",
		"generator":"Created using the official Cinema 4D glTF Exporter 1.000x284978"
	},
	"scenes":[{
		"nodes":[0]
	}],
	"nodes":[{
		"name":"Extrude.1",
		"translation":[-0.00022865984647069126,
		0.0,
		0.0],
		"rotation":[1.0,
		-6.123234262925839e-17,
		6.123234262925839e-17,
		-6.123234262925839e-17],
		"scale":[1.0,
		-1.0,
		1.0],
		"mesh":0
	}],
	"meshes":[{
		"name":"Extrude.1",
		"primitives":[{
			"attributes":{
				"POSITION":1,
				"NORMAL":2
			},
			"indices":0,
			"material":0
		}]
	}],
	"accessors":[{
		"bufferView":0,
		"type":"SCALAR",
		"componentType":5123,
		"byteOffset":0,
		"count":127974,
		"min":[0],
		"max":[20659]
	},
	{
		"bufferView":1,
		"type":"VEC3",
		"componentType":5126,
		"byteOffset":0,
		"count":20660,
		"min":[-153.3976593017578,
		-128.9928436279297,
		-105.1434097290039],
		"max":[153.3976593017578,
		128.9928436279297,
		105.1434097290039]
	},
	{
		"bufferView":1,
		"type":"VEC3",
		"componentType":5126,
		"byteOffset":12,
		"count":20660,
		"min":[-0.9940978288650513,
		-0.9986135363578796,
		-0.9999996423721314],
		"max":[0.9945217967033386,
		0.9708026647567749,
		0.9999799132347107]
	}],
	"bufferViews":[{
		"buffer":0,
		"byteOffset":0,
		"byteLength":255948,
		"target":34963
	},
	{
		"buffer":0,
		"byteOffset":255948,
		"byteLength":495840,
		"target":34962,
		"byteStride":24
	}],
	"buffers":[{
		"uri":"data:application/octet-stream;base64,",
		"byteLength":751788
	}],
	"materials":[{
		"pbrMetallicRoughness":{
			"baseColorFactor":[0.949999988079071,
			0.949999988079071,
			0.949999988079071,
			1.0],
			"metallicFactor":0.0,
			"roughnessFactor":0.5699999588727955
		},
		"emissiveFactor":[0.0,
		0.0,
		0.0],
		"alphaMode":"OPAQUE",
		"doubleSided":false,
		"name":"Plastic Matte"
	}]
}