{
	"asset":{
		"version":"2.0",
		"generator":"Created using the official Cinema 4D glTF Exporter 1.000x284978"
	},
	"scenes":[{
		"nodes":[0]
	}],
	"nodes":[{
		"name":"Extrude.7",
		"translation":[4.733165431326071e-30,
		-4.733165431326071e-30,
		-66.44650268554688],
		"rotation":[0.0,
		0.0,
		0.0,
		-1.0],
		"scale":[1.0,
		1.0,
		1.0],
		"mesh":0
	}],
	"meshes":[{
		"name":"Extrude.7",
		"primitives":[{
			"attributes":{
				"POSITION":1,
				"NORMAL":2
			},
			"indices":0,
			"material":0
		}]
	}],
	"accessors":[{
		"bufferView":0,
		"type":"SCALAR",
		"componentType":5123,
		"byteOffset":0,
		"count":2496,
		"min":[0],
		"max":[2339]
	},
	{
		"bufferView":1,
		"type":"VEC3",
		"componentType":5126,
		"byteOffset":0,
		"count":2340,
		"min":[-144.82093811035157,
		-138.24691772460938,
		-65.65306091308594],
		"max":[144.82093811035157,
		138.24691772460938,
		198.5460662841797]
	},
	{
		"bufferView":1,
		"type":"VEC3",
		"componentType":5126,
		"byteOffset":12,
		"count":2340,
		"min":[-0.9999552965164185,
		-0.9942670464515686,
		-0.9703429937362671],
		"max":[0.9999552965164185,
		0.9978626370429993,
		0.9703434109687805]
	}],
	"bufferViews":[{
		"buffer":0,
		"byteOffset":0,
		"byteLength":4992,
		"target":34963
	},
	{
		"buffer":0,
		"byteOffset":4992,
		"byteLength":56160,
		"target":34962,
		"byteStride":24
	}],
	"buffers":[{
		"uri":"data:application/octet-stream;base64,",
		"byteLength":61152
	}],
	"materials":[{
		"pbrMetallicRoughness":{
			"baseColorFactor":[0.9535999999999999,
			0.96,
			0.9408,
			1.0],
			"metallicFactor":1.0,
			"roughnessFactor":0.0
		},
		"emissiveFactor":[0.0,
		0.0,
		0.0],
		"alphaMode":"OPAQUE",
		"doubleSided":true,
		"name":"Plastic Green - Glossy"
	}]
}