{
	"nodes":[{
		"name":"Extrude.2",
		"translation":[0.0,
		0.0,
		0.0],
		"rotation":[-1.0,
		6.123234262925839e-17,
		6.123234262925839e-17,
		-6.123234262925839e-17],
		"scale":[1.0,
		-1.0,
		1.0],
		"mesh":0
	}],
	"asset":{
		"version":"2.0",
		"generator":"Created using the official Cinema 4D glTF Exporter 1.000x284978"
	},
	"scenes":[{
		"nodes":[0]
	}],
	"meshes":[{
		"name":"Extrude.2",
		"primitives":[{
			"attributes":{
				"POSITION":1
			},
			"indices":0,
			"material":0
		}]
	}],
	"accessors":[{
		"bufferView":0,
		"type":"SCALAR",
		"componentType":5123,
		"count":127974,
		"byteOffset":0,
		"min":[0],
		"max":[20659]
	},
	{
		"bufferView":1,
		"type":"VEC3",
		"componentType":5126,
		"count":20660,
		"byteOffset":0,
		"min":[-26.630800247192384,
		-22.393970489501954,
		-18.253559112548829],
		"max":[26.630800247192384,
		22.393970489501954,
		18.253559112548829]
	}],
	"bufferViews":[{
		"buffer":0,
		"byteOffset":0,
		"byteLength":255948,
		"target":34963
	},
	{
		"buffer":0,
		"byteOffset":255948,
		"byteLength":247920,
		"target":34962
	}],
	"buffers":[{
		"uri":"data:application/octet-stream;base64,",
		"byteLength":503868
	}],
	"materials":[{
		"pbrMetallicRoughness":{
			"baseColorFactor":[0.91,
			0.91,
			0.91,
			1.0],
			"metallicFactor":0.6900000000000001,
			"roughnessFactor":0.16
		},
		"emissiveFactor":[0.0,
		0.0,
		0.0],
		"alphaMode":"OPAQUE",
		"doubleSided":true,
		"name":"Leather 04"
	}]
}