{
	"nodes":[{
		"name":"Extrude.1",
		"translation":[0.0,
		0.0,
		8.236862045989097e-17],
		"rotation":[0.0,
		0.0,
		0.0,
		-1.0],
		"scale":[1.0,
		1.0,
		1.0],
		"mesh":0
	}],
	"asset":{
		"version":"2.0",
		"generator":"Created using the official Cinema 4D glTF Exporter 1.000x284978"
	},
	"scenes":[{
		"nodes":[0]
	}],
	"meshes":[{
		"name":"Extrude.1",
		"primitives":[{
			"attributes":{
				"POSITION":1,
				"NORMAL":2
			},
			"indices":0,
			"material":0
		}]
	}],
	"accessors":[{
		"bufferView":0,
		"componentType":5123,
		"type":"SCALAR",
		"count":87390,
		"byteOffset":0,
		"min":[0],
		"max":[14568]
	},
	{
		"bufferView":1,
		"componentType":5126,
		"type":"VEC3",
		"count":14569,
		"byteOffset":0,
		"min":[-152.4446563720703,
		-129.36585998535157,
		-56.35050964355469],
		"max":[152.43414306640626,
		126.21402740478516,
		44.54727554321289]
	},
	{
		"bufferView":1,
		"componentType":5126,
		"type":"VEC3",
		"count":14569,
		"byteOffset":12,
		"min":[-0.999925971031189,
		-0.9997181296348572,
		-0.9998275637626648],
		"max":[0.9998454451560974,
		0.9995671510696411,
		0.9998275637626648]
	}],
	"bufferViews":[{
		"buffer":0,
		"byteOffset":0,
		"target":34963,
		"byteLength":174780
	},
	{
		"buffer":0,
		"byteOffset":174780,
		"target":34962,
		"byteLength":349656,
		"byteStride":24
	}],
	"buffers":[{
		"uri":"data:application/octet-stream;base64,",
		"byteLength":524436
	}],
	"materials":[{
		"pbrMetallicRoughness":{
			"baseColorFactor":[0.91,
			0.91,
			0.91,
			1.0],
			"metallicFactor":0.9400000000000001,
			"roughnessFactor":0.3
		},
		"emissiveFactor":[0.0,
		0.0,
		0.0],
		"alphaMode":"OPAQUE",
		"doubleSided":true,
		"name":"Leather 04"
	}]
}