{
  "asset": {
    "version": "2.0",
    "generator": "THREE.GLTFExporter"
  },
  "scenes": [
    {
      "name": "Scene",
      "nodes": [
        0,
        1,
        2,
        3,
        5
      ]
    }
  ],
  "scene": 0,
  "nodes": [
    {
      "matrix": [
        1,
        0,
        0,
        0,
        0,
        1,
        0,
        0,
        0,
        0,
        1,
        0,
        0.13368653010445009,
        0.7659915397885868,
        7.120843387841534,
        1
      ],
      "name": "DirectionalLight",
      "extensions": {
        "KHR_lights_punctual": {
          "light": 0
        }
      }
    },
    {
      "matrix": [
        1,
        0,
        0,
        0,
        0,
        1,
        0,
        0,
        0,
        0,
        1,
        0,
        -1.671606432606481,
        2.300258992651612,
        -30.774404165068105,
        1
      ],
      "name": "DirectionalLight",
      "extensions": {
        "KHR_lights_punctual": {
          "light": 1
        }
      }
    },
    {
      "matrix": [
        1,
        0,
        0,
        0,
        0,
        1,
        0,
        0,
        0,
        0,
        1,
        0,
        -0.5638494109322387,
        9.177410211958424,
        -3.5862022419847968,
        1
      ],
      "name": "DirectionalLight",
      "extensions": {
        "KHR_lights_punctual": {
          "light": 2
        }
      }
    },
    {
      "name": "AmbientLight"
    },
    {
      "matrix": [
        0.02,
        2.4492937051703356e-18,
        -2.4492937051703356e-18,
        0,
        -2.4492937051703356e-18,
        0.02,
        2.9995198270935157e-34,
        0,
        2.4492937051703356e-18,
        0,
        0.02,
        0,
        0,
        2.351834684659739,
        0,
        1
      ],
      "name": "Extrude1",
      "extras": {
        "name": "Extrude.1"
      },
      "mesh": 0
    },
    {
      "name": "logo new ver_2_big.gltf",
      "children": [
        4
      ]
    }
  ],
  "extensions": {
    "KHR_lights_punctual": {
      "lights": [
        {
          "name": "DirectionalLight",
          "color": [
            1,
            1,
            1
          ],
          "intensity": 0.4,
          "type": "directional"
        },
        {
          "name": "DirectionalLight",
          "color": [
            1,
            1,
            1
          ],
          "intensity": 0.4,
          "type": "directional"
        },
        {
          "name": "DirectionalLight",
          "color": [
            1,
            1,
            1
          ],
          "intensity": 0.5,
          "type": "directional"
        }
      ]
    }
  },
  "bufferViews": [
    {
      "buffer": 0,
      "byteOffset": 0,
      "byteLength": 247920,
      "target": 34962,
      "byteStride": 12
    },
    {
      "buffer": 0,
      "byteOffset": 247920,
      "byteLength": 247920,
      "target": 34962,
      "byteStride": 12
    },
    {
      "buffer": 0,
      "byteOffset": 495840,
      "byteLength": 255948,
      "target": 34963
    }
  ],
  "buffers": [
    {
      "byteLength": 751788,
      "uri": "data:application/octet-stream;base64,"
    }
  ],
  "accessors": [
    {
      "bufferView": 0,
      "componentType": 5126,
      "count": 20660,
      "max": [
        153.3976593017578,
        128.9928436279297,
        105.1434097290039
      ],
      "min": [
        -153.3976593017578,
        -128.9928436279297,
        -105.1434097290039
      ],
      "type": "VEC3"
    },
    {
      "bufferView": 1,
      "componentType": 5126,
      "count": 20660,
      "max": [
        1,
        0.9708026051521301,
        0.9999798536300659
      ],
      "min": [
        -0.994097888469696,
        -0.9986135363578796,
        -0.9999997019767761
      ],
      "type": "VEC3"
    },
    {
      "bufferView": 2,
      "componentType": 5123,
      "count": 127974,
      "max": [
        20659
      ],
      "min": [
        0
      ],
      "type": "SCALAR"
    }
  ],
  "materials": [
    {
      "pbrMetallicRoughness": {
        "metallicFactor": 0.5,
        "roughnessFactor": 0.5
      },
      "emissiveFactor": [
        0.3764705882352941,
        0.3764705882352941,
        0.3764705882352941
      ]
    }
  ],
  "meshes": [
    {
      "primitives": [
        {
          "mode": 4,
          "attributes": {
            "POSITION": 0,
            "NORMAL": 1
          },
          "indices": 2,
          "material": 0
        }
      ]
    }
  ],
  "extensionsUsed": [
    "KHR_lights_punctual"
  ]
}