{
  "asset": {
    "version": "2.0",
    "generator": "THREE.GLTFExporter"
  },
  "scenes": [
    {
      "name": "Scene",
      "nodes": [
        1,
        2,
        3,
        4,
        5,
        6
      ]
    }
  ],
  "scene": 0,
  "nodes": [
    {
      "name": "Extrude1",
      "extras": {
        "name": "Extrude.1"
      },
      "mesh": 0
    },
    {
      "matrix": [
        0.1,
        0,
        0,
        0,
        0,
        0.1,
        0,
        0,
        0,
        0,
        0.1,
        0,
        0,
        0,
        0,
        1
      ],
      "name": "logoim-2710-cer1.gltf",
      "children": [
        0
      ]
    },
    {
      "matrix": [
        1,
        0,
        0,
        0,
        0,
        1,
        0,
        0,
        0,
        0,
        1,
        0,
        0,
        -14.613202214959895,
        0,
        1
      ],
      "name": "AmbientLight"
    },
    {
      "matrix": [
        1,
        0,
        0,
        0,
        0,
        1,
        0,
        0,
        0,
        0,
        1,
        0,
        -6.6209914083452395,
        15,
        13,
        1
      ],
      "name": "DirectionalLight",
      "extensions": {
        "KHR_lights_punctual": {
          "light": 0
        }
      }
    },
    {
      "matrix": [
        1,
        0,
        0,
        0,
        0,
        1,
        0,
        0,
        0,
        0,
        1,
        0,
        -14.670614714688455,
        -17.445026545699037,
        -13,
        1
      ],
      "name": "DirectionalLight",
      "extensions": {
        "KHR_lights_punctual": {
          "light": 1
        }
      }
    },
    {
      "matrix": [
        1,
        0,
        0,
        0,
        0,
        1,
        0,
        0,
        0,
        0,
        1,
        0,
        17.26676781990322,
        -20,
        13,
        1
      ],
      "name": "DirectionalLight",
      "extensions": {
        "KHR_lights_punctual": {
          "light": 2
        }
      }
    },
    {
      "matrix": [
        1,
        0,
        0,
        0,
        0,
        1,
        0,
        0,
        0,
        0,
        1,
        0,
        7.847436540492769,
        10,
        -13,
        1
      ],
      "name": "DirectionalLight",
      "extensions": {
        "KHR_lights_punctual": {
          "light": 3
        }
      }
    }
  ],
  "bufferViews": [
    {
      "buffer": 0,
      "byteOffset": 0,
      "byteLength": 247920,
      "target": 34962,
      "byteStride": 12
    },
    {
      "buffer": 0,
      "byteOffset": 247920,
      "byteLength": 247920,
      "target": 34962,
      "byteStride": 12
    },
    {
      "buffer": 0,
      "byteOffset": 495840,
      "byteLength": 255948,
      "target": 34963
    }
  ],
  "buffers": [
    {
      "byteLength": 751788,
      "uri": "data:application/octet-stream;base64,"
    }
  ],
  "accessors": [
    {
      "bufferView": 0,
      "componentType": 5126,
      "count": 20660,
      "max": [
        147.7352294921875,
        124.23128509521484,
        45.51734924316406
      ],
      "min": [
        -147.7352294921875,
        -124.22967529296875,
        -50.375606536865234
      ],
      "type": "VEC3"
    },
    {
      "bufferView": 1,
      "componentType": 5126,
      "count": 20660,
      "max": [
        1,
        0.954285204410553,
        0.9999779462814331
      ],
      "min": [
        -0.9940019249916077,
        -0.9988721013069153,
        -0.9999996423721313
      ],
      "type": "VEC3"
    },
    {
      "bufferView": 2,
      "componentType": 5123,
      "count": 127974,
      "max": [
        20659
      ],
      "min": [
        0
      ],
      "type": "SCALAR"
    }
  ],
  "materials": [
    {
      "pbrMetallicRoughness": {
        "metallicFactor": 0,
        "roughnessFactor": 0.24
      },
      "emissiveFactor": [
        0.1,
        0.1,
        0.1
      ],
      "extensions": {
        "KHR_materials_clearcoat": {
          "clearcoatFactor": 0.82,
          "clearcoatRoughnessFactor": 0.4
        },
        "KHR_materials_iridescence": {
          "iridescenceFactor": 0,
          "iridescenceIor": 5,
          "iridescenceThicknessMinimum": 100,
          "iridescenceThicknessMaximum": 0
        }
      }
    }
  ],
  "meshes": [
    {
      "primitives": [
        {
          "mode": 4,
          "attributes": {
            "POSITION": 0,
            "NORMAL": 1
          },
          "indices": 2,
          "material": 0
        }
      ]
    }
  ],
  "extensions": {
    "KHR_lights_punctual": {
      "lights": [
        {
          "name": "DirectionalLight",
          "color": [
            0.8392156862745098,
            0.8392156862745098,
            0.8392156862745098
          ],
          "intensity": 0.3,
          "type": "directional"
        },
        {
          "name": "DirectionalLight",
          "color": [
            1,
            1,
            1
          ],
          "intensity": 0.3,
          "type": "directional"
        },
        {
          "name": "DirectionalLight",
          "color": [
            0.9215686274509803,
            0.9215686274509803,
            0.9215686274509803
          ],
          "intensity": 0.3,
          "type": "directional"
        },
        {
          "name": "DirectionalLight",
          "color": [
            0.8392156862745098,
            0.8392156862745098,
            0.8392156862745098
          ],
          "intensity": 0.3,
          "type": "directional"
        }
      ]
    }
  },
  "extensionsUsed": [
    "KHR_materials_clearcoat",
    "KHR_materials_iridescence",
    "KHR_lights_punctual"
  ]
}