{
	"asset":{
		"version":"2.0",
		"generator":"Created using the official Cinema 4D glTF Exporter 1.000x284978"
	},
	"scenes":[{
		"nodes":[0]
	}],
	"nodes":[{
		"name":"Extrude.1",
		"mesh":0
	}],
	"materials":[{
		"pbrMetallicRoughness":{
			"baseColorFactor":[0.9500000000000001,
			0.9500000000000001,
			0.9500000000000001,
			1.0],
			"metallicFactor":1.0,
			"roughnessFactor":0.14
		},
		"emissiveFactor":[0.0,
		0.0,
		0.0],
		"alphaMode":"OPAQUE",
		"doubleSided":true,
		"name":"Plastic Black - Glossy"
	}],
	"meshes":[{
		"name":"Extrude.1",
		"primitives":[{
			"attributes":{
				"POSITION":1,
				"NORMAL":2
			},
			"indices":0,
			"material":0
		}]
	}],
	"accessors":[{
		"bufferView":0,
		"type":"SCALAR",
		"componentType":5123,
		"count":87390,
		"byteOffset":0,
		"min":[0],
		"max":[14579]
	},
	{
		"bufferView":1,
		"type":"VEC3",
		"componentType":5126,
		"count":14580,
		"byteOffset":0,
		"min":[-1075.30615234375,
		-912.51416015625,
		-397.4822692871094],
		"max":[1075.23193359375,
		890.2818603515625,
		314.2252502441406]
	},
	{
		"bufferView":1,
		"type":"VEC3",
		"componentType":5126,
		"count":14580,
		"byteOffset":12,
		"min":[-0.999925971031189,
		-0.9997180104255676,
		-0.9998275637626648],
		"max":[0.9998454451560974,
		0.9995671510696411,
		0.9998275637626648]
	}],
	"bufferViews":[{
		"buffer":0,
		"byteOffset":0,
		"byteLength":174780,
		"target":34963
	},
	{
		"buffer":0,
		"byteOffset":174780,
		"byteLength":349920,
		"target":34962,
		"byteStride":24
	}],
	"buffers":[{
		"uri":"data:application/octet-stream;base64,",
		"byteLength":524700
	}]
}