{
	"asset":{
		"version":"2.0",
		"generator":"Created using the official Cinema 4D glTF Exporter 1.000x284978"
	},
	"scenes":[{
		"nodes":[0]
	}],
	"nodes":[{
		"name":"Extrude.1",
		"mesh":0
	}],
	"materials":[{
		"pbrMetallicRoughness":{
			"baseColorFactor":[0.92,
			0.92,
			0.92,
			1.0],
			"metallicFactor":0.0,
			"roughnessFactor":0.21
		},
		"emissiveFactor":[0.0,
		0.0,
		0.0],
		"alphaMode":"OPAQUE",
		"doubleSided":false,
		"name":"Mat"
	}],
	"meshes":[{
		"name":"Extrude.1",
		"primitives":[{
			"attributes":{
				"POSITION":1,
				"NORMAL":2
			},
			"indices":0,
			"material":0
		}]
	}],
	"accessors":[{
		"bufferView":0,
		"type":"SCALAR",
		"componentType":5123,
		"count":87390,
		"byteOffset":0,
		"min":[0],
		"max":[14606]
	},
	{
		"bufferView":1,
		"type":"VEC3",
		"componentType":5126,
		"count":14607,
		"byteOffset":0,
		"min":[-197.80259704589845,
		-167.85699462890626,
		-73.11687469482422],
		"max":[197.7889404296875,
		163.7673797607422,
		57.80173873901367]
	},
	{
		"bufferView":1,
		"type":"VEC3",
		"componentType":5126,
		"count":14607,
		"byteOffset":12,
		"min":[-0.999925971031189,
		-0.9997180104255676,
		-0.99982750415802],
		"max":[0.9998454451560974,
		0.9995670914649963,
		0.99982750415802]
	}],
	"bufferViews":[{
		"buffer":0,
		"byteOffset":0,
		"byteLength":174780,
		"target":34963
	},
	{
		"buffer":0,
		"byteOffset":174780,
		"byteLength":350568,
		"target":34962,
		"byteStride":24
	}],
	"buffers":[{
		"uri":"data:application/octet-stream;base64,",
		"byteLength":525348
	}]
}