{
	"asset":{
		"version":"2.0",
		"generator":"Created using the official Cinema 4D glTF Exporter 1.000x284978"
	},
	"scenes":[{
		"nodes":[0]
	}],
	"nodes":[{
		"name":"Extrude.4",
		"mesh":0
	}],
	"materials":[{
		"pbrMetallicRoughness":{
			"baseColorFactor":[0.96,
			0.96,
			0.96,
			1.0],
			"metallicFactor":0.99,
			"roughnessFactor":0.1
		},
		"emissiveFactor":[0.0,
		0.0,
		0.0],
		"alphaMode":"OPAQUE",
		"doubleSided":false,
		"name":"Leather 04"
	}],
	"meshes":[{
		"primitives":[{
			"attributes":{
				"POSITION":1,
				"NORMAL":2
			},
			"indices":0,
			"material":0
		}],
		"name":"Extrude.4"
	}],
	"accessors":[{
		"bufferView":0,
		"type":"SCALAR",
		"componentType":5123,
		"count":46746,
		"byteOffset":0,
		"min":[0],
		"max":[7801]
	},
	{
		"bufferView":1,
		"type":"VEC3",
		"componentType":5126,
		"count":7802,
		"byteOffset":0,
		"min":[-227.28823852539063,
		-192.91030883789063,
		-83.59485626220703],
		"max":[227.17124938964845,
		188.19264221191407,
		65.95602416992188]
	},
	{
		"bufferView":1,
		"type":"VEC3",
		"componentType":5126,
		"count":7802,
		"byteOffset":12,
		"min":[-0.9999383091926575,
		-0.999924898147583,
		-0.9997859597206116],
		"max":[0.9999988079071045,
		0.9996796250343323,
		0.9997859597206116]
	}],
	"bufferViews":[{
		"buffer":0,
		"byteOffset":0,
		"byteLength":93492,
		"target":34963
	},
	{
		"buffer":0,
		"byteOffset":93492,
		"byteLength":187248,
		"target":34962,
		"byteStride":24
	}],
	"buffers":[{
		"uri":"data:application/octet-stream;base64,",
		"byteLength":280740
	}]
}