{
	"nodes":[{
		"name":"Extrude.1",
		"mesh":0
	}],
	"asset":{
		"version":"2.0",
		"generator":"Created using the official Cinema 4D glTF Exporter 1.000x284978"
	},
	"scenes":[{
		"nodes":[0]
	}],
	"meshes":[{
		"name":"Extrude.1",
		"primitives":[{
			"attributes":{
				"POSITION":1,
				"NORMAL":2
			},
			"indices":0,
			"material":0
		}]
	}],
	"accessors":[{
		"bufferView":0,
		"componentType":5123,
		"type":"SCALAR",
		"count":87390,
		"byteOffset":0,
		"min":[0],
		"max":[14577]
	},
	{
		"bufferView":1,
		"componentType":5126,
		"type":"VEC3",
		"count":14578,
		"byteOffset":0,
		"min":[-126.95092010498047,
		-107.73165130615235,
		-46.926856994628909],
		"max":[126.94215393066406,
		105.10690307617188,
		37.097511291503909]
	},
	{
		"bufferView":1,
		"componentType":5126,
		"type":"VEC3",
		"count":14578,
		"byteOffset":12,
		"min":[-0.999925971031189,
		-0.9997180700302124,
		-0.9998275637626648],
		"max":[0.9998454451560974,
		0.9995670914649963,
		0.9998275637626648]
	}],
	"bufferViews":[{
		"buffer":0,
		"byteOffset":0,
		"target":34963,
		"byteLength":174780
	},
	{
		"buffer":0,
		"byteOffset":174780,
		"target":34962,
		"byteLength":349872,
		"byteStride":24
	}],
	"buffers":[{
		"uri":"data:application/octet-stream;base64,",
		"byteLength":524652
	}],
	"materials":[{
		"pbrMetallicRoughness":{
			"baseColorFactor":[0.9500000000000001,
			0.9500000000000001,
			0.9500000000000001,
			1.0],
			"metallicFactor":1.0,
			"roughnessFactor":0.14
		},
		"emissiveFactor":[0.0,
		0.0,
		0.0],
		"alphaMode":"OPAQUE",
		"doubleSided":true,
		"name":"Plastic Black - Glossy"
	}]
}