{
	"asset":{
		"version":"2.0",
		"generator":"Created using the official Cinema 4D glTF Exporter 1.000x284978"
	},
	"scenes":[{
		"nodes":[0]
	}],
	"nodes":[{
		"name":"Extrude",
		"translation":[6.005381010320632e-15,
		0.0,
		0.0],
		"rotation":[0.0,
		-0.7071067690849304,
		0.0,
		-0.7071067690849304],
		"scale":[1.0,
		1.0,
		1.0],
		"mesh":0
	}],
	"materials":[{
		"pbrMetallicRoughness":{
			"baseColorFactor":[0.91,
			0.91,
			0.91,
			1.0],
			"metallicFactor":0.9400000000000001,
			"roughnessFactor":0.3
		},
		"emissiveFactor":[0.0,
		0.0,
		0.0],
		"alphaMode":"OPAQUE",
		"doubleSided":false,
		"name":"Leather 04"
	}],
	"meshes":[{
		"primitives":[{
			"attributes":{
				"POSITION":1,
				"NORMAL":2
			},
			"indices":0,
			"material":0
		}],
		"name":"Extrude"
	}],
	"accessors":[{
		"bufferView":0,
		"type":"SCALAR",
		"componentType":5123,
		"count":63420,
		"byteOffset":0,
		"min":[0],
		"max":[10573]
	},
	{
		"bufferView":1,
		"type":"VEC3",
		"componentType":5126,
		"count":10574,
		"byteOffset":0,
		"min":[-201.28428649902345,
		-170.8115997314453,
		-74.40386199951172],
		"max":[201.2703857421875,
		166.6499786376953,
		58.819156646728519]
	},
	{
		"bufferView":1,
		"type":"VEC3",
		"componentType":5126,
		"count":10574,
		"byteOffset":12,
		"min":[-0.9994305372238159,
		-0.9979931116104126,
		-0.9998275637626648],
		"max":[0.9995328187942505,
		0.9947739243507385,
		0.9998275637626648]
	}],
	"bufferViews":[{
		"buffer":0,
		"byteOffset":0,
		"byteLength":126840,
		"target":34963
	},
	{
		"buffer":0,
		"byteOffset":126840,
		"byteLength":253776,
		"target":34962,
		"byteStride":24
	}],
	"buffers":[{
		"uri":"data:application/octet-stream;base64,",
		"byteLength":380616
	}]
}