{
	"asset":{
		"version":"2.0",
		"generator":"Created using the official Cinema 4D glTF Exporter 1.000x284978"
	},
	"scenes":[{
		"nodes":[0]
	}],
	"nodes":[{
		"name":"Extrude.2",
		"mesh":0
	}],
	"materials":[{
		"pbrMetallicRoughness":{
			"baseColorFactor":[0.91,
			0.91,
			0.91,
			1.0],
			"metallicFactor":0.9400000000000001,
			"roughnessFactor":0.3
		},
		"emissiveFactor":[0.0,
		0.0,
		0.0],
		"alphaMode":"OPAQUE",
		"doubleSided":false,
		"name":"Leather 04"
	}],
	"meshes":[{
		"name":"Extrude.2",
		"primitives":[{
			"attributes":{
				"POSITION":1,
				"NORMAL":2
			},
			"indices":0,
			"material":0
		}]
	}],
	"accessors":[{
		"bufferView":0,
		"type":"SCALAR",
		"componentType":5123,
		"count":127974,
		"byteOffset":0,
		"min":[0],
		"max":[20659]
	},
	{
		"bufferView":1,
		"type":"VEC3",
		"componentType":5126,
		"count":20660,
		"byteOffset":0,
		"min":[-33.156944274902347,
		-27.881837844848634,
		-22.726776123046876],
		"max":[33.156944274902347,
		27.881837844848634,
		22.726776123046876]
	},
	{
		"bufferView":1,
		"type":"VEC3",
		"componentType":5126,
		"count":20660,
		"byteOffset":12,
		"min":[-0.9940978288650513,
		-0.9986135363578796,
		-0.9999996423721314],
		"max":[0.9945218563079834,
		0.9708026051521301,
		0.9999799132347107]
	}],
	"bufferViews":[{
		"buffer":0,
		"byteOffset":0,
		"byteLength":255948,
		"target":34963
	},
	{
		"buffer":0,
		"byteOffset":255948,
		"byteLength":495840,
		"target":34962,
		"byteStride":24
	}],
	"buffers":[{
		"uri":"data:application/octet-stream;base64,",
		"byteLength":751788
	}]
}